<svg width="32" height="32" viewBox="0 0 32 32" fill="none" xmlns="http://www.w3.org/2000/svg">
<g clip-path="url(#clip0_1_2)">
<path d="M32 16C32 7.16344 24.8366 0 16 0C7.16344 0 0 7.16344 0 16C0 24.8366 7.16344 32 16 32C24.8366 32 32 24.8366 32 16Z" fill="#2A1721"/>
<g clip-path="url(#clip1_1_2)">
<path d="M15.8537 14.1747H13.9872C13.9531 13.9332 13.8835 13.7187 13.7784 13.5312C13.6733 13.3409 13.5384 13.179 13.3736 13.0455C13.2088 12.9119 13.0185 12.8097 12.8026 12.7386C12.5895 12.6676 12.358 12.6321 12.108 12.6321C11.6563 12.6321 11.2628 12.7443 10.9276 12.9687C10.5923 13.1903 10.3324 13.5142 10.1477 13.9403C9.96307 14.3636 9.87074 14.8778 9.87074 15.483C9.87074 16.1051 9.96307 16.6278 10.1477 17.0511C10.3352 17.4744 10.5966 17.794 10.9318 18.0099C11.2671 18.2258 11.6548 18.3338 12.0952 18.3338C12.3423 18.3338 12.571 18.3011 12.7813 18.2358C12.9943 18.1705 13.1832 18.0753 13.348 17.9503C13.5128 17.8224 13.6492 17.6676 13.7571 17.4858C13.8679 17.304 13.9446 17.0966 13.9872 16.8636L15.8537 16.8722C15.8054 17.2727 15.6847 17.6591 15.4915 18.0312C15.3011 18.4006 15.044 18.7315 14.7202 19.0241C14.3992 19.3139 14.0156 19.544 13.5696 19.7145C13.1264 19.8821 12.625 19.9659 12.0653 19.9659C11.2869 19.9659 10.5909 19.7898 9.97727 19.4375C9.36648 19.0852 8.88352 18.5753 8.52841 17.9077C8.17614 17.2401 8 16.4318 8 15.483C8 14.5312 8.17898 13.7216 8.53693 13.054C8.89489 12.3864 9.38068 11.8778 9.99432 11.5284C10.608 11.1761 11.2983 11 12.0653 11C12.571 11 13.0398 11.071 13.4716 11.2131C13.9063 11.3551 14.2912 11.5625 14.6264 11.8352C14.9617 12.1051 15.2344 12.4361 15.4446 12.8281C15.6577 13.2202 15.794 13.669 15.8537 14.1747ZM17.1769 19.8466V11.1193H20.6712C21.3132 11.1193 21.8487 11.2145 22.2777 11.4048C22.7067 11.5952 23.0291 11.8594 23.245 12.1974C23.4609 12.5327 23.5689 12.919 23.5689 13.3565C23.5689 13.6974 23.5007 13.9972 23.3643 14.2557C23.228 14.5114 23.0405 14.7216 22.8018 14.8864C22.5661 15.0483 22.2962 15.1633 21.9922 15.2315V15.3168C22.3246 15.331 22.6357 15.4247 22.9254 15.598C23.218 15.7713 23.4553 16.0142 23.6371 16.3267C23.8189 16.6364 23.9098 17.0057 23.9098 17.4347C23.9098 17.8977 23.7947 18.3111 23.5646 18.6747C23.3374 19.0355 23.0007 19.321 22.5547 19.5312C22.1087 19.7415 21.5589 19.8466 20.9055 19.8466H17.1769ZM19.022 18.3381H20.5263C21.0405 18.3381 21.4155 18.2401 21.6513 18.044C21.8871 17.8452 22.005 17.581 22.005 17.2514C22.005 17.0099 21.9467 16.7969 21.8303 16.6122C21.7138 16.4276 21.5476 16.2827 21.3317 16.1776C21.1186 16.0724 20.8643 16.0199 20.5689 16.0199H19.022V18.3381ZM19.022 14.7713H20.3899C20.6428 14.7713 20.8672 14.7273 21.0632 14.6392C21.2621 14.5483 21.4183 14.4205 21.532 14.2557C21.6484 14.0909 21.7067 13.8935 21.7067 13.6633C21.7067 13.348 21.5945 13.0937 21.37 12.9006C21.1484 12.7074 20.8331 12.6108 20.424 12.6108H19.022V14.7713Z" fill="#FFF9F0"/>
</g>
</g>
<defs>
<clipPath id="clip0_1_2">
<rect width="32" height="32" fill="white"/>
</clipPath>
<clipPath id="clip1_1_2">
<rect width="16" height="9" fill="white" transform="translate(8 11)"/>
</clipPath>
</defs>
</svg>
